<?xml version="1.0" encoding="utf-8"?>
<!-- Generator: Adobe Illustrator 18.0.0, SVG Export Plug-In . SVG Version: 6.00 Build 0)  -->
<!DOCTYPE svg PUBLIC "-//W3C//DTD SVG 1.1//EN" "http://www.w3.org/Graphics/SVG/1.1/DTD/svg11.dtd">
<svg version="1.1" id="Слой_1" xmlns="http://www.w3.org/2000/svg" xmlns:xlink="http://www.w3.org/1999/xlink" x="0px" y="0px"
	 viewBox="0 0 141.7 155.9" enable-background="new 0 0 141.7 155.9" xml:space="preserve">
<path fill="#020203" d="M45.4,38.8c-1.3,0-2.5-0.5-3.4-1.3c-1.6-1.6-1.4-4,0.5-5.4l0,0l0,0c0,0,0.1,0,0.1-0.1v0c0,0,0,0,0,0
	c1.3-0.9,9.6-6.3,28.3-6.4c0.2,0,0.4,0,0.6,0c0.2,0,0.3,0,0.5,0c17.4,0.1,26.2,4.7,28.6,6.1c0.3,0.2,0.4,0.3,0.4,0.3l0,0
	c2.2,1.6,1.7,3.6,1.5,4.2c-0.4,1.2-1.5,2.1-3,2.5c-1.4,0.4-2.9,0.1-4-0.6c0,0,0,0-0.1,0c-0.8-0.5-8.2-3.4-23.8-3.4
	c-16.5,0-23,3.3-23.1,3.3C47.4,38.5,46.4,38.8,45.4,38.8z"/>
<g>
	<path fill="#020203" d="M69.9,131.2V97.9c0-0.3-0.2-0.6-0.4-0.7c0,0-10.1-4.9-10.1-14.5c0-10.3,5.4-22.6,12-22.6
		c6.6,0,12,12.3,12,22.6c0,9.5-10,14.5-10,14.5c-0.2,0.1-0.4,0.4-0.4,0.7v32.8c0,0.3,0.1,0.3,0.3,0.1c0,0,15.9-25.9,17.8-29.1
		c1.9-3.1,14.6-20.3,14.6-20.3c0.2-0.2,0.2-0.6,0.1-0.9c0,0-6.3-15-7.7-18.3c-1.4-3.2-5.2-18.2-5.2-18.2c-0.1-0.3-0.3-0.6-0.6-0.7
		c0,0-8.6-4.4-20.8-4.4c-12.2,0-20.3,4.4-20.3,4.4c-0.2,0.1-0.5,0.5-0.6,0.7c0,0-3.8,15-5.3,18.2c-1.5,3.2-7.8,18.3-7.8,18.3
		c-0.1,0.3-0.1,0.6,0.1,0.9c0,0,12.2,17.2,14.5,20.3C54.2,104.8,69.9,131.2,69.9,131.2"/>
</g>
</svg>
